<svg xmlns="http://www.w3.org/2000/svg" xmlns:svg="http://www.w3.org/2000/svg" xmlns:xlink="http://www.w3.org/1999/xlink" id="Слой_1" width="90" height="90" x="0" y="0" enable-background="new 0 0 90 90" version="1.1" viewBox="0 0 90 90" xml:space="preserve"><metadata id="metadata23"/><defs id="defs21"><clipPath id="clipPath942" clipPathUnits="userSpaceOnUse"><path id="path944" d="M 0,96 96,96 96,0 0,0 0,96 z"/></clipPath><clipPath id="clipPath252" clipPathUnits="userSpaceOnUse"><path id="path254" d="M 0,96 96,96 96,0 0,0 0,96 z"/></clipPath><clipPath id="clipPath1128" clipPathUnits="userSpaceOnUse"><path id="path1130" d="M 0,96 96,96 96,0 0,0 0,96 z"/></clipPath><clipPath id="clipPath344" clipPathUnits="userSpaceOnUse"><path id="path346" d="M 0,96 96,96 96,0 0,0 0,96 z"/></clipPath><clipPath id="clipPath544" clipPathUnits="userSpaceOnUse"><path id="path546" d="M 0,96 96,96 96,0 0,0 0,96 z"/></clipPath><clipPath id="clipPath544-6" clipPathUnits="userSpaceOnUse"><path id="path546-9" d="M 0,96 96,96 96,0 0,0 0,96 z"/></clipPath></defs><g id="g11"><defs id="defs13"><rect id="SVGID_1_" width="90" height="90" x="0" y="0"/></defs><clipPath id="SVGID_2_"><use id="use17" overflow="visible" xlink:href="#SVGID_1_"/></clipPath></g><g id="g3099" transform="matrix(0.78239613,0,0,0.78239613,31.825587,30.608079)"><g id="g340" transform="matrix(1.5976562,0,0,-1.5976562,-59.848153,95.08249)"><g id="g342" clip-path="url(#clipPath344)"><g id="g348" transform="translate(21.7905,45.7842)"><path style="fill:#2e3436;fill-opacity:1;stroke:none" id="path3008" d="M 26.3842,37.065999 C 13.546377,37.107575 -0.66940233,26.260635 -0.56579913,9.5409997 -0.51433513,1.2358079 1.5180792,-4.5833063 8.1092007,-13.834 13.075358,-20.804042 26.3842,-31.858999 26.3842,-31.858999 c 0,0 11.852004,11.498595 16.875,18.024999 7.232588,9.3973289 9.69658,14.70246873 9.725,23.3749997 0.05496,16.7692403 -13.842804,27.4836823 -26.6,27.5249993 z m -0.345012,-4.469776 c 10.48213,0 22.205224,-12.743164 22.205224,-23.2252945 0,-10.4821301 -11.553082,-21.8901995 -22.035212,-21.8901995 -10.48213,0 -21.8652001,11.74809337 -21.8652001,22.2302235 0,10.4821305 11.2130581,22.8852705 21.6951881,22.8852705 z"/><g id="g542" clip-path="url(#clipPath544-6)" transform="matrix(0.5696183,0,0,0.5696183,-0.84463813,-17.618177)"><g id="g6380"><g id="g548" transform="matrix(0.68235169,0,0,0.68229498,48.206406,58.142198)"><path id="path550" d="m 0,0 c -7.702,-0.013 -13.939,-6.273 -13.926,-13.979 0.016,-7.703 6.278,-13.939 13.981,-13.921 7.703,0.013 13.941,6.271 13.924,13.975 C 13.969,-6.219 7.709,0.017 0,0" style="fill:#2e3436;fill-opacity:1;fill-rule:nonzero;stroke:none"/></g><path id="path6300" d="M 8.3481289,47.569495 22.848588,47.780541" style="fill:#2e3436;stroke:#2e3436;stroke-width:9.83114433;stroke-linecap:butt;stroke-linejoin:miter;stroke-miterlimit:4;stroke-opacity:1;stroke-dasharray:none"/><path id="path6302" d="M 47.22357,88.839063 47.434623,73.93772" style="fill:#2e3436;stroke:#2e3436;stroke-width:9.83114433;stroke-linecap:butt;stroke-linejoin:miter;stroke-miterlimit:4;stroke-opacity:1;stroke-dasharray:none"/><path id="path6300-5" d="m 72.587765,47.780541 14.50046,-0.06181" style="fill:#2e3436;stroke:#2e3436;stroke-width:9.83114433;stroke-linecap:butt;stroke-linejoin:miter;stroke-miterlimit:4;stroke-opacity:1;stroke-dasharray:none"/><path id="path6302-8" d="m 48.118969,7.812366 -0.08742,14.155177" style="fill:#2e3436;stroke:#2e3436;stroke-width:9.83114433;stroke-linecap:butt;stroke-linejoin:miter;stroke-miterlimit:4;stroke-opacity:1;stroke-dasharray:none"/></g></g></g></g></g></g></svg>