<svg xmlns="http://www.w3.org/2000/svg" xmlns:svg="http://www.w3.org/2000/svg" xmlns:xlink="http://www.w3.org/1999/xlink" id="Слой_1" width="90" height="90" x="0" y="0" enable-background="new 0 0 90 90" version="1.1" viewBox="0 0 90 90" xml:space="preserve"><metadata id="metadata23"/><defs id="defs21"><clipPath id="clipPath942" clipPathUnits="userSpaceOnUse"><path id="path944" d="M 0,96 96,96 96,0 0,0 0,96 z"/></clipPath><clipPath id="clipPath252" clipPathUnits="userSpaceOnUse"><path id="path254" d="M 0,96 96,96 96,0 0,0 0,96 z"/></clipPath><clipPath id="clipPath1128" clipPathUnits="userSpaceOnUse"><path id="path1130" d="M 0,96 96,96 96,0 0,0 0,96 z"/></clipPath></defs><g id="g11"><defs id="defs13"><rect id="SVGID_1_" width="90" height="90" x="0" y="0"/></defs><clipPath id="SVGID_2_"><use id="use17" overflow="visible" xlink:href="#SVGID_1_"/></clipPath></g><g id="g3099" transform="matrix(0.78239613,0,0,0.78239613,31.825587,30.608079)"><path id="path3005-2" d="m 62.021653,36.337788 a 12.134671,12.134671 0 1 1 -24.269342,0 12.134671,12.134671 0 1 1 24.269342,0 z" transform="matrix(1.3360105,0,0,1.3360105,-49.810986,-30.152993)" style="fill:#2e3436;fill-opacity:1;stroke:none"/><g id="g1124" transform="matrix(1.5976562,0,0,-1.5976562,-58.873551,95.082039)"><g id="g1126" clip-path="url(#clipPath1128)"><g id="g1136" transform="translate(70.501,28.8594)"><path id="path1138" d="m 0,0 0,13.301 -4.161,0 0,-13.301 -13.103,0 0,-4.162 13.103,0 0,-13.297 4.161,0 0,13.297 13.104,0 0,4.162 L 0,0 z" style="fill:#333;fill-opacity:1;fill-rule:nonzero;stroke:none"/></g></g></g></g></svg>