<svg xmlns="http://www.w3.org/2000/svg" xmlns:svg="http://www.w3.org/2000/svg" xmlns:xlink="http://www.w3.org/1999/xlink" id="Слой_1" width="90" height="90" x="0" y="0" enable-background="new 0 0 90 90" version="1.1" viewBox="0 0 90 90" xml:space="preserve"><metadata id="metadata23"/><defs id="defs21"><clipPath id="clipPath942" clipPathUnits="userSpaceOnUse"><path id="path944" d="M 0,96 96,96 96,0 0,0 0,96 z"/></clipPath><clipPath id="clipPath252" clipPathUnits="userSpaceOnUse"><path id="path254" d="M 0,96 96,96 96,0 0,0 0,96 z"/></clipPath><clipPath id="clipPath1128" clipPathUnits="userSpaceOnUse"><path id="path1130" d="M 0,96 96,96 96,0 0,0 0,96 z"/></clipPath><clipPath id="clipPath1128-5" clipPathUnits="userSpaceOnUse"><path id="path1130-4" d="M 0,96 96,96 96,0 0,0 0,96 z"/></clipPath></defs><g id="g11"><defs id="defs13"><rect id="SVGID_1_" width="90" height="90" x="0" y="0"/></defs><clipPath id="SVGID_2_"><use id="use17" overflow="visible" xlink:href="#SVGID_1_"/></clipPath></g><g id="g3099" transform="matrix(0.78239613,0,0,0.78239613,31.825587,30.608079)"><path style="fill:none;stroke:#333;stroke-width:12.78124905;stroke-linecap:round;stroke-linejoin:round;stroke-miterlimit:4;stroke-opacity:1;stroke-dasharray:none" id="path3105-6" d="m 25.785081,-27.511707 37.445041,-0.401748 0.661557,44.728421 -37.91905,-44.514218"/><path style="fill:none;stroke:#333;stroke-width:10;stroke-linecap:round;stroke-linejoin:round;stroke-miterlimit:4;stroke-opacity:1;stroke-dasharray:none" id="path3105" d="M 22.735982,80.523594 9.1684175,8.8325293 35.595037,23.394137 53.381134,44.344572 22.3434,80.376859" transform="matrix(1.2781249,0,0,1.2781249,-40.677076,-39.120949)"/><path id="path3005-2-4" d="m 62.021653,36.337788 c 0,6.701793 -5.432877,12.134671 -12.134671,12.134671 -6.701794,0 -12.134671,-5.432878 -12.134671,-12.134671 0,-6.701794 5.432877,-12.134672 12.134671,-12.134672 6.701794,0 12.134671,5.432878 12.134671,12.134672 z" transform="matrix(0.76175935,0,0,0.76175935,-49.038332,36.166602)" style="fill:#fff;fill-opacity:1;stroke:#2e3436;stroke-width:5.74003744;stroke-miterlimit:4;stroke-dasharray:none"/><path id="path3005-2-4-3" d="m 62.021653,36.337788 c 0,6.701793 -5.432877,12.134671 -12.134671,12.134671 -6.701794,0 -12.134671,-5.432878 -12.134671,-12.134671 0,-6.701794 5.432877,-12.134672 12.134671,-12.134672 6.701794,0 12.134671,5.432878 12.134671,12.134672 z" transform="matrix(0.76175935,0,0,0.76175935,-35.941315,-37.590285)" style="fill:#fff;fill-opacity:1;stroke:#2e3436;stroke-width:5.74003744;stroke-miterlimit:4;stroke-dasharray:none"/><path id="path3005-2-4-0" d="m 62.021653,36.337788 a 12.134671,12.134671 0 1 1 -24.269342,0 12.134671,12.134671 0 1 1 24.269342,0 z" transform="matrix(0.76175935,0,0,0.76175935,-12.504546,-10.017617)" style="fill:#fff;fill-opacity:1;stroke:#2e3436;stroke-width:5.74003744;stroke-miterlimit:4;stroke-dasharray:none"/><path id="path3005-2-4-38" d="m 62.021653,36.337788 a 12.134671,12.134671 0 1 1 -24.269342,0 12.134671,12.134671 0 1 1 24.269342,0 z" transform="matrix(0.76175935,0,0,0.76175935,-14.227838,-54.823205)" style="fill:#fff;fill-opacity:1;stroke:#2e3436;stroke-width:5.74003744;stroke-miterlimit:4;stroke-dasharray:none"/><g id="g1124" transform="matrix(1.5976562,0,0,-1.5976562,-59.677256,94.296212)"><g id="g1126" clip-path="url(#clipPath1128-5)"><g id="g1136" transform="translate(70.501,28.8594)"><path id="path1138" d="m 0,0 0,13.301 -4.161,0 0,-13.301 -13.103,0 0,-4.162 13.103,0 0,-13.297 4.161,0 0,13.297 13.104,0 0,4.162 L 0,0 z" style="fill:#333;fill-opacity:1;fill-rule:nonzero;stroke:none"/></g></g></g><path id="path3005-2-4-38-2" d="m 62.021653,36.337788 c 0,6.701793 -5.432877,12.134671 -12.134671,12.134671 -6.701794,0 -12.134671,-5.432878 -12.134671,-12.134671 0,-6.701794 5.432877,-12.134672 12.134671,-12.134672 6.701794,0 12.134671,5.432878 12.134671,12.134672 z" transform="matrix(0.76175935,0,0,0.76175935,-66.960567,-55.167863)" style="fill:#fff;fill-opacity:1;stroke:#2e3436;stroke-width:5.74003744;stroke-miterlimit:4;stroke-dasharray:none"/><path id="path3005-2-4-38-0" d="m 62.021653,36.337788 a 12.134671,12.134671 0 1 1 -24.269342,0 12.134671,12.134671 0 1 1 24.269342,0 z" transform="matrix(0.76175935,0,0,0.76175935,25.063216,-55.512521)" style="fill:#fff;fill-opacity:1;stroke:#2e3436;stroke-width:5.74003744;stroke-miterlimit:4;stroke-dasharray:none"/><path id="path3005-2-4-38-0-4" d="m 62.021653,36.337788 a 12.134671,12.134671 0 1 1 -24.269342,0 12.134671,12.134671 0 1 1 24.269342,0 z" transform="matrix(0.76175935,0,0,0.76175935,25.752532,-11.396251)" style="fill:#fff;fill-opacity:1;stroke:#2e3436;stroke-width:5.74003744;stroke-miterlimit:4;stroke-dasharray:none"/></g></svg>