<svg xmlns="http://www.w3.org/2000/svg" xmlns:svg="http://www.w3.org/2000/svg" xmlns:xlink="http://www.w3.org/1999/xlink" id="Слой_1" width="90" height="90" x="0" y="0" enable-background="new 0 0 90 90" version="1.1" viewBox="0 0 90 90" xml:space="preserve"><metadata id="metadata23"/><path id="path3" fill="#31B7DA" d="M90,68.472c0,2.761-1.754,5.881-5,7.117s-31.5,12.39-35.333,13.528s-5.343,1.217-8.501,0 C38.008,87.9,7.701,76.954,5.057,75.588s-5-4.355-5-7.117V5c0-2.761,2.239-5,5-5H85c2.761,0,5,2.239,5,5V68.472z"/><g id="g11"><defs id="defs13"><rect id="SVGID_1_" width="90" height="90" x="0" y="0"/></defs><clipPath id="SVGID_2_"><use id="use17" overflow="visible" xlink:href="#SVGID_1_"/></clipPath></g><path style="fill:#fff;fill-opacity:1;stroke:none" id="path3008" d="m 45.196304,76.124765 c 0,0 -12.855747,-10.695899 -17.654591,-17.431114 C 21.172653,49.754621 19.211099,44.147978 19.161371,36.122597 19.061258,19.966261 32.790999,9.4888063 45.196304,9.5289813 57.523698,9.5689091 70.949121,19.918327 70.896016,36.122597 70.868551,44.502942 68.49895,49.612927 61.510033,58.693651 56.656267,65.000175 45.196304,76.124765 45.196304,76.124765 z"/><path style="fill:#31b7da;fill-opacity:1;stroke:none" id="path3005" d="m 62.021653,36.337788 a 12.134671,12.134671 0 1 1 -24.269342,0 12.134671,12.134671 0 1 1 24.269342,0 z" transform="matrix(1.2,0,0,1.2,-14.835878,-7.8068764)"/></svg>