<svg xmlns="http://www.w3.org/2000/svg" xmlns:svg="http://www.w3.org/2000/svg" xmlns:xlink="http://www.w3.org/1999/xlink" id="Слой_1" width="90" height="90" x="0" y="0" enable-background="new 0 0 90 90" version="1.1" viewBox="0 0 90 90" xml:space="preserve"><metadata id="metadata23"/><defs id="defs21"><clipPath id="clipPath942" clipPathUnits="userSpaceOnUse"><path id="path944" d="M 0,96 96,96 96,0 0,0 0,96 z"/></clipPath><clipPath id="clipPath252" clipPathUnits="userSpaceOnUse"><path id="path254" d="M 0,96 96,96 96,0 0,0 0,96 z"/></clipPath><clipPath id="clipPath1128" clipPathUnits="userSpaceOnUse"><path id="path1130" d="M 0,96 96,96 96,0 0,0 0,96 z"/></clipPath><clipPath id="clipPath1128-5" clipPathUnits="userSpaceOnUse"><path id="path1130-4" d="M 0,96 96,96 96,0 0,0 0,96 z"/></clipPath></defs><g id="g11"><defs id="defs13"><rect id="SVGID_1_" width="90" height="90" x="0" y="0"/></defs><clipPath id="SVGID_2_"><use id="use17" overflow="visible" xlink:href="#SVGID_1_"/></clipPath></g><g id="g3099" transform="matrix(0.78239613,0,0,0.78239613,31.825587,30.608079)"><path style="fill:none;stroke:#333;stroke-width:10.00000025;stroke-linecap:butt;stroke-linejoin:miter;stroke-opacity:1;stroke-miterlimit:4;stroke-dasharray:none" id="path3101" d="M 29.66253,31.483917 9.1684185,8.8325303" transform="matrix(1.2781249,0,0,1.2781249,-40.677076,-39.120949)"/><path style="fill:none;stroke:#333;stroke-width:10;stroke-linecap:round;stroke-linejoin:round;stroke-miterlimit:4;stroke-opacity:1;stroke-dasharray:none" id="path3105" d="M 6.28676,84.029166 29.66253,28.787323 46.381412,50.629734 84.095397,5.6812125" transform="matrix(1.2781249,0,0,1.2781249,-40.677076,-39.120949)"/><path id="path3005-2-4" d="m 62.021653,36.337788 c 0,6.701793 -5.432877,12.134671 -12.134671,12.134671 -6.701794,0 -12.134671,-5.432878 -12.134671,-12.134671 0,-6.701794 5.432877,-12.134672 12.134671,-12.134672 6.701794,0 12.134671,5.432878 12.134671,12.134672 z" transform="matrix(0.76175935,0,0,0.76175935,-66.615908,36.855919)" style="fill:#fff;fill-opacity:1;stroke:#2e3436;stroke-width:5.74003744;stroke-miterlimit:4;stroke-dasharray:none"/><path id="path3005-2-4-3" d="m 62.021653,36.337788 c 0,6.701793 -5.432877,12.134671 -12.134671,12.134671 -6.701794,0 -12.134671,-5.432878 -12.134671,-12.134671 0,-6.701794 5.432877,-12.134672 12.134671,-12.134672 6.701794,0 12.134671,5.432878 12.134671,12.134672 z" transform="matrix(0.76175935,0,0,0.76175935,-40.766532,-26.21656)" style="fill:#fff;fill-opacity:1;stroke:#2e3436;stroke-width:5.74003744;stroke-miterlimit:4;stroke-dasharray:none"/><path id="path3005-2-4-0" d="m 62.021653,36.337788 c 0,6.701793 -5.432877,12.134671 -12.134671,12.134671 -6.701794,0 -12.134671,-5.432878 -12.134671,-12.134671 0,-6.701794 5.432877,-12.134672 12.134671,-12.134672 6.701794,0 12.134671,5.432878 12.134671,12.134672 z" transform="matrix(0.76175935,0,0,0.76175935,-18.708396,-2.0904748)" style="fill:#fff;fill-opacity:1;stroke:#2e3436;stroke-width:5.74003744;stroke-miterlimit:4;stroke-dasharray:none"/><path id="path3005-2-4-38" d="m 62.021653,36.337788 c 0,6.701793 -5.432877,12.134671 -12.134671,12.134671 -6.701794,0 -12.134671,-5.432878 -12.134671,-12.134671 0,-6.701794 5.432877,-12.134672 12.134671,-12.134672 6.701794,0 12.134671,5.432878 12.134671,12.134672 z" transform="matrix(0.76175935,0,0,0.76175935,25.407874,-55.512522)" style="fill:#fff;fill-opacity:1;stroke:#2e3436;stroke-width:5.74003744;stroke-miterlimit:4;stroke-dasharray:none"/><path id="path3005-2-4-38-2" d="m 62.021653,36.337788 a 12.134671,12.134671 0 1 1 -24.269342,0 12.134671,12.134671 0 1 1 24.269342,0 z" transform="matrix(0.76175935,0,0,0.76175935,-66.960567,-55.167863)" style="fill:#fff;fill-opacity:1;stroke:#2e3436;stroke-width:5.74003744;stroke-miterlimit:4;stroke-dasharray:none"/><g id="g524" transform="matrix(1.5976562,0,0,-1.5976562,73.295239,44.426428)"><path style="fill:#333;fill-opacity:1;fill-rule:nonzero;stroke:none" id="path526" d="m 0,0 0.24,0.244 -2.894,2.91 -8.28,-8.304 -8.033,8.064 -0.244,0.24 -2.9,-2.91 8.281,-8.299 -8.039,-8.06 -0.242,-0.242 2.9,-2.911 8.277,8.305 8.036,-8.06 0.244,-0.245 2.898,2.911 -8.279,8.302 L 0,0 z"/></g></g></svg>