<svg xmlns="http://www.w3.org/2000/svg" xmlns:svg="http://www.w3.org/2000/svg" xmlns:xlink="http://www.w3.org/1999/xlink" id="Слой_1" width="90" height="90" x="0" y="0" enable-background="new 0 0 90 90" version="1.1" viewBox="0 0 90 90" xml:space="preserve"><metadata id="metadata23"/><defs id="defs21"><clipPath id="clipPath942" clipPathUnits="userSpaceOnUse"><path id="path944" d="M 0,96 96,96 96,0 0,0 0,96 z"/></clipPath><clipPath id="clipPath252" clipPathUnits="userSpaceOnUse"><path id="path254" d="M 0,96 96,96 96,0 0,0 0,96 z"/></clipPath><clipPath id="clipPath1128" clipPathUnits="userSpaceOnUse"><path id="path1130" d="M 0,96 96,96 96,0 0,0 0,96 z"/></clipPath><clipPath id="clipPath1128-5" clipPathUnits="userSpaceOnUse"><path id="path1130-4" d="M 0,96 96,96 96,0 0,0 0,96 z"/></clipPath></defs><g id="g11"><defs id="defs13"><rect id="SVGID_1_" width="90" height="90" x="0" y="0"/></defs><clipPath id="SVGID_2_"><use id="use17" overflow="visible" xlink:href="#SVGID_1_"/></clipPath></g><g id="g3099" transform="matrix(0.78239613,0,0,0.78239613,31.825587,30.608079)"><path style="fill:none;stroke:#333;stroke-width:10;stroke-linecap:round;stroke-linejoin:round;stroke-miterlimit:4;stroke-opacity:1;stroke-dasharray:none" id="path3105" d="M 22.735982,80.523594 9.1684175,8.8325293 42.066862,18.270609 79.268434,9.0191935 49.314525,57.767166 22.3434,80.376859" transform="matrix(1.2781249,0,0,1.2781249,-40.677076,-39.120949)"/><path id="path3005-2-4" d="m 62.021653,36.337788 a 12.134671,12.134671 0 1 1 -24.269342,0 12.134671,12.134671 0 1 1 24.269342,0 z" transform="matrix(0.76175935,0,0,0.76175935,-49.038332,36.166602)" style="fill:#fff;fill-opacity:1;stroke:#2e3436;stroke-width:5.74003744;stroke-miterlimit:4;stroke-dasharray:none"/><path id="path3005-2-4-3" d="m 62.021653,36.337788 a 12.134671,12.134671 0 1 1 -24.269342,0 12.134671,12.134671 0 1 1 24.269342,0 z" transform="matrix(0.76175935,0,0,0.76175935,-24.912247,-43.794135)" style="fill:#fff;fill-opacity:1;stroke:#2e3436;stroke-width:5.74003744;stroke-miterlimit:4;stroke-dasharray:none"/><path id="path3005-2-4-0" d="m 62.021653,36.337788 a 12.134671,12.134671 0 1 1 -24.269342,0 12.134671,12.134671 0 1 1 24.269342,0 z" transform="matrix(0.76175935,0,0,0.76175935,-16.640446,5.8366675)" style="fill:#fff;fill-opacity:1;stroke:#2e3436;stroke-width:5.74003744;stroke-miterlimit:4;stroke-dasharray:none"/><path id="path3005-2-4-38" d="m 62.021653,36.337788 a 12.134671,12.134671 0 1 1 -24.269342,0 12.134671,12.134671 0 1 1 24.269342,0 z" transform="matrix(0.76175935,0,0,0.76175935,23.684582,-54.823205)" style="fill:#fff;fill-opacity:1;stroke:#2e3436;stroke-width:5.74003744;stroke-miterlimit:4;stroke-dasharray:none"/><path id="path3005-2-4-38-2" d="m 62.021653,36.337788 a 12.134671,12.134671 0 1 1 -24.269342,0 12.134671,12.134671 0 1 1 24.269342,0 z" transform="matrix(0.76175935,0,0,0.76175935,-66.960567,-55.167863)" style="fill:#fff;fill-opacity:1;stroke:#2e3436;stroke-width:5.74003744;stroke-miterlimit:4;stroke-dasharray:none"/><path style="fill:#333;stroke:none" id="path4067" d="M 17.914844,11.45918 -0.35204817,25.245515 -7.5898739,-0.94851895 9.2294545,2.291269 z"/><g id="g524" transform="matrix(1.5976562,0,0,-1.5976562,73.984556,44.771086)"><path style="fill:#333;fill-opacity:1;fill-rule:nonzero;stroke:none" id="path526" d="m 0,0 0.24,0.244 -2.894,2.91 -8.28,-8.304 -8.033,8.064 -0.244,0.24 -2.9,-2.91 8.281,-8.299 -8.039,-8.06 -0.242,-0.242 2.9,-2.911 8.277,8.305 8.036,-8.06 0.244,-0.245 2.898,2.911 -8.279,8.302 L 0,0 z"/></g></g></svg>