<svg xmlns="http://www.w3.org/2000/svg" xmlns:svg="http://www.w3.org/2000/svg" xmlns:xlink="http://www.w3.org/1999/xlink" id="Слой_1" width="90" height="90" x="0" y="0" enable-background="new 0 0 90 90" version="1.1" viewBox="0 0 90 90" xml:space="preserve"><metadata id="metadata23"/><defs id="defs21"><clipPath id="clipPath942" clipPathUnits="userSpaceOnUse"><path id="path944" d="M 0,96 96,96 96,0 0,0 0,96 z"/></clipPath><clipPath id="clipPath252" clipPathUnits="userSpaceOnUse"><path id="path254" d="M 0,96 96,96 96,0 0,0 0,96 z"/></clipPath><clipPath id="clipPath1128" clipPathUnits="userSpaceOnUse"><path id="path1130" d="M 0,96 96,96 96,0 0,0 0,96 z"/></clipPath></defs><g id="g11"><defs id="defs13"><rect id="SVGID_1_" width="90" height="90" x="0" y="0"/></defs><clipPath id="SVGID_2_"><use id="use17" overflow="visible" xlink:href="#SVGID_1_"/></clipPath></g><g id="g3099" transform="matrix(0.78239613,0,0,0.78239613,31.825587,30.608079)"><path id="path3005-2" d="m 62.021653,36.337788 a 12.134671,12.134671 0 1 1 -24.269342,0 12.134671,12.134671 0 1 1 24.269342,0 z" transform="matrix(1.3360105,0,0,1.3360105,-49.810986,-30.152993)" style="fill:#2e3436;fill-opacity:1;stroke:none"/><g id="g524" transform="matrix(1.5976562,0,0,-1.5976562,73.332386,44.496567)"><path style="fill:#333;fill-opacity:1;fill-rule:nonzero;stroke:none" id="path526" d="m 0,0 0.24,0.244 -2.894,2.91 -8.28,-8.304 -8.033,8.064 -0.244,0.24 -2.9,-2.91 8.281,-8.299 -8.039,-8.06 -0.242,-0.242 2.9,-2.911 8.277,8.305 8.036,-8.06 0.244,-0.245 2.898,2.911 -8.279,8.302 L 0,0 z"/></g></g></svg>