<svg xmlns="http://www.w3.org/2000/svg" xmlns:svg="http://www.w3.org/2000/svg" xmlns:xlink="http://www.w3.org/1999/xlink" id="Слой_1" width="90" height="90" x="0" y="0" enable-background="new 0 0 90 90" version="1.1" viewBox="0 0 90 90" xml:space="preserve"><metadata id="metadata23"/><defs id="defs21"><clipPath id="clipPath942" clipPathUnits="userSpaceOnUse"><path id="path944" d="M 0,96 96,96 96,0 0,0 0,96 z"/></clipPath><clipPath id="clipPath252" clipPathUnits="userSpaceOnUse"><path id="path254" d="M 0,96 96,96 96,0 0,0 0,96 z"/></clipPath><clipPath id="clipPath1128" clipPathUnits="userSpaceOnUse"><path id="path1130" d="M 0,96 96,96 96,0 0,0 0,96 z"/></clipPath><clipPath id="clipPath344" clipPathUnits="userSpaceOnUse"><path id="path346" d="M 0,96 96,96 96,0 0,0 0,96 z"/></clipPath><clipPath id="clipPath544" clipPathUnits="userSpaceOnUse"><path id="path546" d="M 0,96 96,96 96,0 0,0 0,96 z"/></clipPath><clipPath id="clipPath544-6" clipPathUnits="userSpaceOnUse"><path id="path546-9" d="M 0,96 96,96 96,0 0,0 0,96 z"/></clipPath></defs><g id="g11"><defs id="defs13"><rect id="SVGID_1_" width="90" height="90" x="0" y="0"/></defs><clipPath id="SVGID_2_"><use id="use17" overflow="visible" xlink:href="#SVGID_1_"/></clipPath></g><g id="g3099" transform="matrix(0.78239613,0,0,0.78239613,31.825587,30.608079)"><g id="g340" transform="matrix(1.5976562,0,0,-1.5976562,-59.848153,95.08249)"><g id="g342" clip-path="url(#clipPath344)"><g id="g348" transform="translate(21.7905,45.7842)"><path style="fill:#01579b;fill-opacity:1;stroke:#03a9f4;stroke-width:.98487031;stroke-opacity:1" id="path3008" d="m 54.593899,-25.291455 c 8.716831,9.157477 10.556425,26.6510638 -1.505648,37.86334 -5.991629,5.569506 -11.540602,8.043428 -22.635592,9.572018 -8.35965,1.151733 -39.2975535,15.101825 -39.2975535,15.101825 0,0 14.2304267,-32.2523095 15.5124885,-40.2518712 1.8460282,-11.5185248 3.983761,-16.8627028 10.184804,-22.7373338 11.990357,-11.359214 29.079413,-8.647942 37.741501,0.452022 z m -2.030828,1.996523 c -7.876111,-8.696965 -25.00752,-9.517206 -33.662664,-0.702075 -8.492705,8.649692 -8.889654,24.68162125 -0.500544,33.2501547 7.971262,8.1417493 20.715179,11.5065823 32.912497,0.8102883 9.467606,-8.3025049 9.849966,-23.862892 1.250711,-33.358368 z"/></g></g></g></g></svg>