<svg xmlns="http://www.w3.org/2000/svg" xmlns:svg="http://www.w3.org/2000/svg" xmlns:xlink="http://www.w3.org/1999/xlink" id="Слой_1" width="90" height="90" x="0" y="0" enable-background="new 0 0 90 90" version="1.1" viewBox="0 0 90 90" xml:space="preserve"><metadata id="metadata23"/><defs id="defs21"><clipPath id="clipPath942" clipPathUnits="userSpaceOnUse"><path id="path944" d="M 0,96 96,96 96,0 0,0 0,96 z"/></clipPath><clipPath id="clipPath252" clipPathUnits="userSpaceOnUse"><path id="path254" d="M 0,96 96,96 96,0 0,0 0,96 z"/></clipPath></defs><g id="g11"><defs id="defs13"><rect id="SVGID_1_" width="90" height="90" x="0" y="0"/></defs><clipPath id="SVGID_2_"><use id="use17" overflow="visible" xlink:href="#SVGID_1_"/></clipPath></g><g id="g3099" transform="matrix(0.78239613,0,0,0.78239613,31.825587,30.608079)"><path id="path3005-2" d="m 62.021653,36.337788 c 0,6.701793 -5.432877,12.134671 -12.134671,12.134671 -6.701794,0 -12.134671,-5.432878 -12.134671,-12.134671 0,-6.701794 5.432877,-12.134672 12.134671,-12.134672 6.701794,0 12.134671,5.432878 12.134671,12.134672 z" transform="matrix(1.3360105,0,0,1.3360105,-91.05355,-70.908138)" style="fill:#2e3436;fill-opacity:1;stroke:none"/><g id="g250" clip-path="url(#clipPath252)" transform="matrix(1.7787379,0,0,-1.7787379,-53.822385,86.169081)"><g id="g260" transform="translate(43.9443,14.8574)"><path style="fill:#333;fill-opacity:1;fill-rule:nonzero;stroke:none" id="path262" d="m 0,0 0.6,0.74 -9.623,10.871 -1.5,-6.412 c -8.283,3.492 -14.114,11.696 -14.114,21.237 l -3.492,0 c 0,-14.604 11.864,-26.487 26.448,-26.526 l 0.06,-0.019 0.022,0.019 L 0,0 z"/></g></g><path style="fill:#333;stroke:#333;stroke-width:5.11249973;stroke-linecap:butt;stroke-linejoin:miter;stroke-opacity:1;fill-opacity:1;stroke-miterlimit:4;stroke-dasharray:none" id="path3005" d="m 55.344763,48.12732 19.404754,3e-6"/><path style="fill:#333;fill-opacity:1;stroke:#333;stroke-width:5.11249971;stroke-linecap:butt;stroke-linejoin:miter;stroke-miterlimit:4;stroke-opacity:1;stroke-dasharray:none" id="path3005-7" d="m 24.439598,48.127322 19.404753,3e-6"/><path style="fill:#333;fill-opacity:1;stroke:#333;stroke-width:5.11249971;stroke-linecap:butt;stroke-linejoin:miter;stroke-miterlimit:4;stroke-opacity:1;stroke-dasharray:none" id="path3005-4" d="m 49.008298,75.986116 3e-6,-19.404753"/><path style="fill:#333;fill-opacity:1;stroke:#333;stroke-width:5.11249971;stroke-linecap:butt;stroke-linejoin:miter;stroke-miterlimit:4;stroke-opacity:1;stroke-dasharray:none" id="path3005-4-0" d="m 49.008301,38.820301 3e-6,-19.404753"/></g></svg>