<svg xmlns="http://www.w3.org/2000/svg" xmlns:svg="http://www.w3.org/2000/svg" xmlns:xlink="http://www.w3.org/1999/xlink" id="Слой_1" width="90" height="90" x="0" y="0" enable-background="new 0 0 90 90" version="1.1" viewBox="0 0 90 90" xml:space="preserve"><metadata id="metadata23"/><defs id="defs21"><clipPath id="clipPath942" clipPathUnits="userSpaceOnUse"><path id="path944" d="M 0,96 96,96 96,0 0,0 0,96 z"/></clipPath><clipPath id="clipPath252" clipPathUnits="userSpaceOnUse"><path id="path254" d="M 0,96 96,96 96,0 0,0 0,96 z"/></clipPath><clipPath id="clipPath1128" clipPathUnits="userSpaceOnUse"><path id="path1130" d="M 0,96 96,96 96,0 0,0 0,96 z"/></clipPath><clipPath id="clipPath344" clipPathUnits="userSpaceOnUse"><path id="path346" d="M 0,96 96,96 96,0 0,0 0,96 z"/></clipPath></defs><g id="g11"><defs id="defs13"><rect id="SVGID_1_" width="90" height="90" x="0" y="0"/></defs><clipPath id="SVGID_2_"><use id="use17" overflow="visible" xlink:href="#SVGID_1_"/></clipPath></g><g id="g3099" transform="matrix(0.78239613,0,0,0.78239613,31.825587,30.608079)"><g id="g340" transform="matrix(1.5976562,0,0,-1.5976562,-59.848153,95.08249)"><g id="g342" clip-path="url(#clipPath344)"><g id="g348" transform="translate(21.7905,45.7842)"><path id="path350" d="M 0,0 6.709,2.326 0.003,4.472 c 0.463,5.42 2.57,10.375 5.826,14.361 l 5.441,-2.807 -2.74,5.659 c 4.14,3.763 9.483,6.22 15.375,6.734 l 2.304,-6.924 1.941547,6.807844 c 0,0 6.519133,-0.7601 9.484814,-2.051684 2.936644,-1.278937 7.884669,-5.49254 7.884669,-5.49254 l -3.946582,-5.445141 5.97904,2.322302 c 0,0 3.533044,-4.953362 4.547754,-7.7809843 1.074052,-2.9929862 1.305639,-6.613049 1.305639,-6.613049 L 46.45845,1.3104875 53.069911,-0.67679092 c 0,0 -1.444721,-6.59519218 -2.895669,-8.94450148 -1.733027,-2.8060386 -4.264055,-5.4979826 -4.264055,-5.4979826 L 39.969,-12.644 43.469591,-17.580409 C 39.365591,-21.043409 33.87,-23.595 28.201,-24.021 l -1.992,5.987 -1.997,-5.987 C 18.2,-23.566 12.743,-21.09 8.531,-17.26 l 2.727,5.656 -5.426,-2.806 C 2.566,-10.411 0.456,-5.438 0,0 m 26.209,32.216 c -16.548,0 -30,-13.46 -30,-30 0,-16.55 13.452,-30 30,-30 16.541,0 30,13.45 30,30 0,16.54 -13.459,30 -30,30" style="fill:#333;fill-opacity:1;fill-rule:nonzero;stroke:none"/><path style="fill:#333;fill-opacity:1;stroke:none" id="path5958" d="m 39.370268,42.674781 5.258357,9.572908 26.022129,-20.224453 z" transform="matrix(0.79999998,0,0,-0.79999998,-9.7909992,38.215999)"/></g></g></g></g></svg>